<svg xmlns="http://www.w3.org/2000/svg" width="390" height="844" viewBox="0 0 390 844" role="img" aria-labelledby="title desc">
  <title id="title">Planext4u customer home golden reference</title>
  <desc id="desc">Mobile home with location, search, wallet, modules, recommendations and bottom navigation.</desc>
  <rect width="390" height="844" fill="#FAFBFC"/>
  <rect width="390" height="116" fill="#011D33"/>
  <text x="20" y="34" fill="#8DDDDD" font-family="Inter,Arial" font-size="12">DELIVER TO</text>
  <text x="20" y="57" fill="#FFFFFF" font-family="Inter,Arial" font-size="16" font-weight="700">Coimbatore ▾</text>
  <circle cx="354" cy="45" r="20" fill="#14364D"/><text x="348" y="51" fill="#FFFFFF" font-family="Arial" font-size="16">●</text>
  <rect x="16" y="78" width="358" height="48" rx="12" fill="#FFFFFF" stroke="#DDE5EB"/>
  <text x="34" y="108" fill="#64748B" font-family="Inter,Arial" font-size="14">⌕  Search products, services and people</text>
  <rect x="16" y="142" width="358" height="76" rx="16" fill="#E7F7F7"/>
  <text x="32" y="168" fill="#011D33" font-family="Inter,Arial" font-size="13" font-weight="700">WALLET &amp; REWARDS</text>
  <text x="32" y="197" fill="#011D33" font-family="Inter,Arial" font-size="24" font-weight="700">305 pts</text>
  <rect x="272" y="160" width="84" height="40" rx="12" fill="#009999"/><text x="291" y="185" fill="#FFFFFF" font-family="Inter,Arial" font-size="13" font-weight="700">View</text>
  <text x="16" y="249" fill="#011D33" font-family="Inter,Arial" font-size="18" font-weight="700">Everything nearby</text>
  <g font-family="Inter,Arial" font-size="12" text-anchor="middle" fill="#011D33">
    <rect x="16" y="264" width="110" height="82" rx="16" fill="#FFFFFF" stroke="#E5E7EB"/><circle cx="71" cy="291" r="17" fill="#E7F7F7"/><text x="71" y="321">Shop</text>
    <rect x="140" y="264" width="110" height="82" rx="16" fill="#FFFFFF" stroke="#E5E7EB"/><circle cx="195" cy="291" r="17" fill="#FFF2D8"/><text x="195" y="321">Services</text>
    <rect x="264" y="264" width="110" height="82" rx="16" fill="#FFFFFF" stroke="#E5E7EB"/><circle cx="319" cy="291" r="17" fill="#E7F7F7"/><text x="319" y="321">Food</text>
    <rect x="16" y="358" width="110" height="82" rx="16" fill="#FFFFFF" stroke="#E5E7EB"/><circle cx="71" cy="385" r="17" fill="#FFF2D8"/><text x="71" y="415">Homes</text>
    <rect x="140" y="358" width="110" height="82" rx="16" fill="#FFFFFF" stroke="#E5E7EB"/><circle cx="195" cy="385" r="17" fill="#E7F7F7"/><text x="195" y="415">Classifieds</text>
    <rect x="264" y="358" width="110" height="82" rx="16" fill="#FFFFFF" stroke="#E5E7EB"/><circle cx="319" cy="385" r="17" fill="#FFF2D8"/><text x="319" y="415">Socio</text>
  </g>
  <rect x="16" y="458" width="358" height="90" rx="18" fill="#011D33"/>
  <text x="34" y="486" fill="#F89F03" font-family="Inter,Arial" font-size="12" font-weight="700">TRUSTED LOCAL SERVICES</text>
  <text x="34" y="512" fill="#FFFFFF" font-family="Inter,Arial" font-size="18" font-weight="700">Book help in minutes</text>
  <rect x="276" y="480" width="78" height="40" rx="12" fill="#F89F03"/><text x="294" y="505" fill="#011D33" font-family="Inter,Arial" font-size="13" font-weight="700">Explore</text>
  <text x="16" y="583" fill="#011D33" font-family="Inter,Arial" font-size="18" font-weight="700">Recommended for you</text>
  <rect x="16" y="600" width="171" height="142" rx="16" fill="#FFFFFF" stroke="#E5E7EB"/><rect x="28" y="612" width="147" height="70" rx="10" fill="#E7F7F7"/><text x="28" y="707" fill="#011D33" font-family="Inter,Arial" font-size="14" font-weight="700">Local essentials</text><text x="28" y="728" fill="#64748B" font-family="Inter,Arial" font-size="12">From ₹199</text>
  <rect x="203" y="600" width="171" height="142" rx="16" fill="#FFFFFF" stroke="#E5E7EB"/><rect x="215" y="612" width="147" height="70" rx="10" fill="#FFF2D8"/><text x="215" y="707" fill="#011D33" font-family="Inter,Arial" font-size="14" font-weight="700">Home care</text><text x="215" y="728" fill="#64748B" font-family="Inter,Arial" font-size="12">Available today</text>
  <rect y="770" width="390" height="74" fill="#FFFFFF" stroke="#E5E7EB"/>
  <g font-family="Inter,Arial" font-size="11" text-anchor="middle"><text x="48" y="811" fill="#009999" font-weight="700">Home</text><text x="146" y="811" fill="#64748B">Orders</text><text x="244" y="811" fill="#64748B">Socio</text><text x="342" y="811" fill="#64748B">Profile</text></g>
</svg>
