<svg xmlns="http://www.w3.org/2000/svg" width="390" height="844" viewBox="0 0 390 844" role="img" aria-labelledby="title desc">
  <title id="title">Planext4u product detail golden reference</title>
  <desc id="desc">Mobile product detail with media, trust, price, variants, delivery, tabs and purchase actions.</desc>
  <rect width="390" height="844" fill="#FAFBFC"/>
  <rect width="390" height="64" fill="#011D33"/><text x="18" y="41" fill="#FFFFFF" font-family="Inter,Arial" font-size="24">‹</text><text x="54" y="39" fill="#FFFFFF" font-family="Inter,Arial" font-size="17" font-weight="700">Product details</text><text x="338" y="39" fill="#FFFFFF" font-family="Inter,Arial" font-size="20">♡</text>
  <rect x="16" y="80" width="358" height="260" rx="20" fill="#E7F7F7"/><circle cx="195" cy="200" r="62" fill="#BDE8E8"/><text x="174" y="208" fill="#009999" font-family="Inter,Arial" font-size="18" font-weight="700">MEDIA</text>
  <rect x="154" y="317" width="82" height="7" rx="3.5" fill="#009999"/>
  <text x="16" y="374" fill="#64748B" font-family="Inter,Arial" font-size="12">VERIFIED LOCAL SELLER ✓</text>
  <text x="16" y="402" fill="#011D33" font-family="Inter,Arial" font-size="22" font-weight="700">Cold-pressed sesame oil</text>
  <text x="16" y="429" fill="#F89F03" font-family="Inter,Arial" font-size="14">★ 4.8</text><text x="72" y="429" fill="#64748B" font-family="Inter,Arial" font-size="13">126 reviews</text>
  <text x="16" y="468" fill="#011D33" font-family="Inter,Arial" font-size="26" font-weight="700">₹450</text><text x="96" y="466" fill="#64748B" font-family="Inter,Arial" font-size="14" text-decoration="line-through">₹520</text><rect x="144" y="446" width="63" height="26" rx="10" fill="#DCFCE7"/><text x="155" y="464" fill="#166534" font-family="Inter,Arial" font-size="12" font-weight="700">13% OFF</text>
  <text x="16" y="507" fill="#011D33" font-family="Inter,Arial" font-size="14" font-weight="700">Size</text>
  <rect x="16" y="519" width="64" height="42" rx="12" fill="#009999"/><text x="38" y="545" fill="#FFFFFF" font-family="Inter,Arial" font-size="13" font-weight="700">1 L</text><rect x="90" y="519" width="82" height="42" rx="12" fill="#FFFFFF" stroke="#CBD5E1"/><text x="107" y="545" fill="#011D33" font-family="Inter,Arial" font-size="13">500 ml</text>
  <rect x="16" y="578" width="358" height="76" rx="16" fill="#FFFFFF" stroke="#E5E7EB"/><text x="32" y="604" fill="#011D33" font-family="Inter,Arial" font-size="14" font-weight="700">Delivery to Coimbatore</text><text x="32" y="630" fill="#64748B" font-family="Inter,Arial" font-size="13">In stock • expected tomorrow</text><text x="330" y="618" fill="#009999" font-family="Inter,Arial" font-size="14">›</text>
  <g font-family="Inter,Arial" font-size="13" font-weight="700"><text x="18" y="694" fill="#009999">Description</text><text x="118" y="694" fill="#64748B">Specs</text><text x="178" y="694" fill="#64748B">Reviews</text><text x="249" y="694" fill="#64748B">Q&amp;A</text></g><rect x="16" y="704" width="78" height="3" rx="1.5" fill="#009999"/>
  <text x="16" y="735" fill="#475569" font-family="Inter,Arial" font-size="13">Original product content wraps naturally and</text><text x="16" y="755" fill="#475569" font-family="Inter,Arial" font-size="13">remains readable at 130% text scale.</text>
  <rect y="778" width="390" height="66" fill="#FFFFFF" stroke="#E5E7EB"/><rect x="16" y="789" width="168" height="46" rx="12" fill="#FFFFFF" stroke="#009999" stroke-width="2"/><text x="54" y="817" fill="#009999" font-family="Inter,Arial" font-size="14" font-weight="700">Add to cart</text><rect x="198" y="789" width="176" height="46" rx="12" fill="#009999"/><text x="255" y="817" fill="#FFFFFF" font-family="Inter,Arial" font-size="14" font-weight="700">Buy now</text>
</svg>
